<?xml version="1.0" standalone="no"?>
<!DOCTYPE svg PUBLIC "-//W3C//DTD SVG 20010904//EN"
 "http://www.w3.org/TR/2001/REC-SVG-20010904/DTD/svg10.dtd">
<svg version="1.0" xmlns="http://www.w3.org/2000/svg"
 width="382.000000pt" height="382.000000pt" viewBox="0 0 382.000000 382.000000"
 preserveAspectRatio="xMidYMid meet">
<metadata>
Created by potrace 1.11, written by Peter Selinger 2001-2013
</metadata>
<g transform="translate(0.000000,382.000000) scale(0.100000,-0.100000)"
fill="#000000" stroke="none">
<path d="M2090 3235 c-142 -26 -275 -58 -315 -76 -22 -9 -68 -43 -103 -76 -53
-48 -67 -69 -88 -126 -26 -74 -30 -107 -13 -107 6 0 9 7 6 15 -4 8 -2 17 3 20
8 5 13 -23 13 -70 0 -6 7 -17 15 -25 16 -15 17 -18 -5 52 -4 15 -3 19 5 14 7
-4 12 -14 12 -22 0 -8 5 -14 10 -14 6 0 10 -8 10 -18 0 -11 9 -27 20 -37 19
-17 20 -17 47 14 16 18 37 31 51 31 12 0 39 7 60 16 29 13 66 16 167 15 157
-2 197 -9 210 -39 5 -12 15 -22 22 -22 15 0 17 -14 4 -38 -5 -9 -17 -34 -26
-54 -9 -21 -20 -38 -25 -38 -6 0 -10 -7 -10 -15 0 -8 -4 -15 -10 -15 -5 0 -10
-11 -10 -24 0 -22 14 -38 89 -98 31 -26 27 -38 -9 -28 -16 5 -30 6 -30 2 0
-11 44 -36 58 -33 24 4 42 -21 42 -60 0 -21 -4 -41 -10 -44 -20 -12 -11 -36
12 -33 21 3 23 -2 25 -48 2 -44 0 -52 -21 -63 -18 -10 -29 -10 -44 -2 -35 18
-49 13 -56 -21 -7 -37 -58 -88 -86 -88 -10 0 -22 -5 -25 -10 -4 -6 -15 -8 -25
-5 -12 4 -27 -3 -42 -18 -13 -13 -36 -32 -51 -42 -15 -9 -27 -25 -27 -35 0
-10 -4 -20 -9 -22 -6 -1 -11 -15 -13 -30 -2 -15 -7 -30 -11 -34 -14 -14 -7
-34 11 -34 21 0 23 -33 4 -52 -9 -9 -12 -8 -12 5 0 9 -7 17 -15 17 -17 0 -20
-16 -5 -25 15 -9 12 -35 -5 -35 -19 0 -66 -48 -54 -55 16 -11 10 -25 -12 -25
-15 0 -19 -4 -15 -16 4 -9 1 -23 -5 -30 -6 -8 -9 -23 -6 -34 3 -11 1 -20 -4
-20 -5 0 -7 -10 -4 -23 6 -20 1 -25 -33 -35 -22 -7 -54 -12 -72 -12 -34 0 -92
-24 -110 -45 -7 -9 -5 -19 8 -35 16 -20 29 -23 118 -27 121 -5 152 -8 160 -16
3 -3 12 -3 20 0 10 4 12 0 8 -11 -3 -9 -2 -16 4 -16 5 0 13 -11 16 -25 4 -14
19 -36 35 -50 26 -23 41 -50 86 -147 10 -21 21 -38 25 -38 4 0 13 -14 20 -30
7 -16 19 -30 28 -30 12 0 13 -9 7 -52 -4 -29 -7 -63 -6 -75 0 -13 -4 -23 -9
-23 -6 0 -10 -5 -10 -10 0 -6 -9 -20 -20 -32 -27 -30 -25 -38 10 -38 18 0 33
-6 36 -15 9 -22 22 -18 26 6 2 14 15 25 38 33 19 7 34 17 32 24 -1 7 1 12 5
12 22 -1 32 -20 35 -66 l3 -51 35 9 c45 12 187 89 242 131 24 18 66 48 93 66
71 48 195 179 195 207 0 13 -10 30 -22 38 -27 19 -48 112 -48 223 0 109 27
179 96 252 30 30 50 60 47 67 -3 8 0 14 6 14 6 0 11 6 11 14 0 7 9 25 20 39
31 39 115 197 156 292 27 62 45 488 24 560 -7 22 -13 49 -14 60 -1 12 -19 38
-40 60 -33 34 -37 42 -31 74 l6 36 -19 -23 c-23 -29 -51 -20 -58 18 -3 15 -16
38 -29 52 -26 29 -50 70 -47 81 1 5 -2 6 -8 2 -15 -10 -50 4 -50 20 0 8 -21
26 -47 41 -27 15 -59 34 -72 43 -56 37 -130 73 -191 92 -84 27 -300 34 -410
14z m689 -901 c26 -15 66 -72 57 -81 -2 -3 -10 5 -16 17 -25 47 -118 68 -159
36 -11 -9 -13 -8 -9 4 6 19 46 40 76 40 13 0 36 -7 51 -16z m-15 -116 c18 -88
17 -95 -17 -139 -18 -24 -45 -50 -60 -57 -15 -7 -27 -19 -27 -27 0 -24 37 -27
75 -5 l36 20 -26 -34 c-34 -45 -88 -70 -149 -68 -63 1 -76 14 -31 31 43 15 45
27 5 35 -32 6 -42 26 -12 26 9 0 31 9 47 20 17 11 44 20 62 20 66 0 85 81 32
131 -21 20 -26 29 -15 29 8 0 20 9 26 20 15 27 48 26 54 -2z m73 -75 c-3 -10
-5 -2 -5 17 0 19 2 27 5 18 2 -10 2 -26 0 -35z m-257 -33 c0 -30 -5 -42 -17
-46 -10 -3 -26 -10 -35 -14 -16 -9 -16 -6 -3 37 13 42 28 62 48 63 4 0 7 -18
7 -40z m-630 -340 c0 -5 -5 -10 -11 -10 -5 0 -7 5 -4 10 3 6 8 10 11 10 2 0 4
-4 4 -10z m793 -660 c-3 -11 -10 -23 -16 -27 -7 -4 -8 0 -4 11 4 10 7 24 7 32
0 9 4 13 9 10 5 -3 7 -15 4 -26z"/>
<path d="M1709 2469 c-16 -17 -30 -41 -30 -53 -3 -47 -7 -83 -13 -113 -7 -31
-5 -33 21 -35 15 -1 45 -2 66 -4 20 -1 37 1 37 4 0 4 30 8 67 9 38 2 103 4
146 5 42 2 77 6 77 11 0 4 14 7 30 7 25 0 30 4 30 24 0 13 3 31 6 40 4 11 1
16 -10 16 -9 0 -16 -4 -16 -9 0 -15 -49 13 -53 30 -7 27 -77 54 -137 53 -30 0
-46 1 -35 4 11 2 24 8 29 12 5 5 0 7 -11 4 -11 -3 -25 1 -32 10 -10 12 -32 16
-78 16 -60 0 -67 -2 -94 -31z m176 -36 c-11 -3 -24 -9 -29 -14 -15 -13 -36
-11 -36 4 0 9 15 13 43 14 23 1 33 -1 22 -4z m10 -113 c-3 -5 1 -10 9 -10 9 0
16 -5 16 -10 0 -14 -26 -24 -45 -16 -13 5 -13 9 -3 26 7 11 16 20 21 20 4 0 5
-4 2 -10z"/>
<path d="M1537 2453 c4 -10 15 -29 25 -42 23 -30 23 -61 1 -61 -17 -1 -17 -1
0 -11 47 -27 52 50 6 99 -34 36 -41 40 -32 15z"/>
<path d="M2160 2395 c0 -8 7 -15 16 -15 14 0 14 3 4 15 -7 8 -14 15 -16 15 -2
0 -4 -7 -4 -15z"/>
<path d="M2240 2392 c0 -5 7 -15 15 -22 8 -7 15 -9 15 -6 0 4 -7 14 -15 22 -8
9 -15 11 -15 6z"/>
<path d="M1623 2126 c9 -7 17 -20 17 -28 0 -8 6 -20 13 -27 20 -21 -50 -10
-105 16 -60 29 -70 29 -104 0 -23 -20 -25 -26 -14 -43 7 -10 26 -28 44 -39 17
-11 35 -30 41 -43 12 -27 34 -28 106 -5 102 31 124 78 68 146 -21 26 -38 37
-57 37 -25 -1 -25 -2 -9 -14z"/>
<path d="M1534 1835 c-12 -8 -24 -11 -28 -8 -3 3 -6 -3 -6 -13 0 -30 20 -44
65 -45 22 0 34 -3 27 -6 -6 -2 -10 -8 -7 -13 7 -11 45 -1 45 12 0 5 4 6 10 3
19 -12 -25 -42 -68 -48 -24 -3 -46 -8 -50 -11 -3 -4 2 -22 11 -41 13 -26 23
-35 42 -35 32 0 65 33 65 64 0 32 16 41 75 44 28 2 54 7 60 13 5 5 18 10 30
10 19 1 19 2 0 6 -10 3 -34 20 -53 39 -28 28 -37 32 -53 24 -14 -8 -32 -6 -64
5 -57 19 -75 19 -101 0z"/>
<path d="M1836 1787 c3 -10 9 -15 12 -12 3 3 0 11 -7 18 -10 9 -11 8 -5 -6z"/>
<path d="M1842 980 c0 -14 2 -19 5 -12 2 6 2 18 0 25 -3 6 -5 1 -5 -13z"/>
<path d="M1857 882 c9 -95 48 -178 95 -203 16 -9 16 -6 2 42 -8 28 -33 79 -54
113 -21 35 -40 72 -43 82 -3 10 -3 -5 0 -34z"/>
</g>
</svg>
